<svg width="17" height="31" viewBox="0 0 17 31" fill="none" xmlns="http://www.w3.org/2000/svg">
<path d="M5.8999 28.9627V13.1707L2.76389 11.6027L0.486562 6.30133C1.35767 5.82844 2.21634 5.24355 3.06256 4.54666C3.93367 3.82489 4.70523 3.09066 5.37723 2.344C6.07412 1.59733 6.55945 0.962664 6.83323 0.439996L12.3586 -0.00800235L16.0919 1.85866V30.2693L9.63323 30.792L5.8999 28.9627ZM7.05723 0.813329C6.80834 1.28622 6.3479 1.896 5.6759 2.64266C5.0039 3.36444 4.24478 4.08622 3.39856 4.808C2.55234 5.50489 1.73101 6.06489 0.934562 6.488L2.91323 11.08L6.27323 9.13867V28.552L11.9852 28.0667V0.402664L7.05723 0.813329Z" fill="#708089"/>
</svg>
