<svg width="22" height="33" viewBox="0 0 22 33" fill="none" xmlns="http://www.w3.org/2000/svg">
<path d="M0.777228 30.448V27.1253C0.777228 24.512 1.42434 22.16 2.71856 20.0693C4.01278 17.9538 5.71767 16.0249 7.83323 14.2827C8.50523 13.7102 9.04034 13.2 9.43856 12.752L4.02523 11.968L0.291895 10.1013C0.665228 7.31377 1.61101 5.08622 3.12923 3.41866C4.67234 1.75111 6.77545 0.792885 9.43856 0.543997C9.61279 0.519108 9.77456 0.506664 9.9239 0.506664C10.0732 0.506664 10.235 0.506664 10.4092 0.506664C11.2803 0.506664 12.1639 0.631108 13.0599 0.879997C13.9808 1.104 14.9888 1.47733 16.0839 2C17.851 2.84622 19.195 3.904 20.1159 5.17333C21.0617 6.44266 21.5346 8.11022 21.5346 10.176C21.5346 11.5698 21.2857 12.8516 20.7879 14.0213C20.315 15.1911 19.5808 16.3111 18.5852 17.3813C17.5897 18.4516 16.3452 19.584 14.8519 20.7787C14.3292 21.1769 13.8315 21.6124 13.3586 22.0853C12.9106 22.5333 12.5123 22.9813 12.1639 23.4293L17.5772 22.944L21.3106 24.8107V30.8587L4.51056 32.3147L0.777228 30.448ZM6.93723 24.2507C6.93723 23.3547 7.31056 22.4213 8.05723 21.4507C8.8039 20.4551 9.74967 19.5093 10.8946 18.6133C12.363 17.4684 13.5701 16.3733 14.5159 15.328C15.4866 14.2578 16.2083 13.1627 16.6812 12.0427C17.179 10.9227 17.4279 9.67822 17.4279 8.30933C17.4279 6.06933 16.8306 4.27733 15.6359 2.93333C14.4412 1.56444 12.7115 0.879997 10.4466 0.879997C10.2972 0.879997 10.1355 0.879997 9.96123 0.879997C9.8119 0.879997 9.65012 0.892441 9.4759 0.91733C6.91234 1.14133 4.89634 2.04977 3.4279 3.64266C1.95945 5.23555 1.05101 7.28889 0.702561 9.80266L5.8919 10.5493C6.01634 9.504 6.35234 8.55822 6.8999 7.712C7.47234 6.84089 8.14434 6.368 8.9159 6.29333H9.2519C9.97367 6.29333 10.5461 6.52977 10.9692 7.00266C11.3923 7.47555 11.6039 8.18489 11.6039 9.13066C11.6039 9.80266 11.355 10.5991 10.8572 11.52C10.3843 12.416 9.45101 13.4364 8.05723 14.5813C5.99145 16.2738 4.3239 18.1529 3.05456 20.2187C1.78523 22.2596 1.15056 24.5618 1.15056 27.1253V30.0373L17.2039 28.6933V23.3547L6.93723 24.2507ZM11.2306 8.34666C10.7826 8.57066 10.4217 9.056 10.1479 9.80266C9.87412 10.5493 9.71234 11.4702 9.66256 12.5653C10.1355 12.0178 10.5212 11.4329 10.8199 10.8107C11.1186 10.1884 11.2679 9.56622 11.2679 8.944C11.2679 8.84444 11.2679 8.74489 11.2679 8.64533C11.2679 8.54578 11.2555 8.44622 11.2306 8.34666Z" fill="#708089"/>
</svg>
