<svg width="24" height="33" viewBox="0 0 24 33" fill="none" xmlns="http://www.w3.org/2000/svg">
<path d="M5.92123 11.9307C6.41901 11.8809 6.96656 11.8311 7.5639 11.7813C8.16123 11.7316 8.60923 11.6942 8.9079 11.6693C9.18167 11.6444 9.44301 11.6071 9.6919 11.5573C9.94078 11.4827 10.1772 11.3956 10.4012 11.296L5.39856 10.6613L1.66523 8.79466C2.01367 6.50489 2.94701 4.60089 4.46523 3.08266C6.00834 1.56444 7.98701 0.705774 10.4012 0.506664C10.6003 0.481775 10.7995 0.469331 10.9986 0.469331C11.2226 0.444441 11.4217 0.431996 11.5959 0.431996C12.691 0.431996 13.6741 0.58133 14.5452 0.879997C15.4412 1.17866 16.3746 1.57689 17.3452 2.07466C19.0377 2.92089 20.307 3.86666 21.1532 4.912C21.9995 5.95733 22.4226 7.41333 22.4226 9.28C22.4226 10.7982 22.099 12.1173 21.4519 13.2373C20.8297 14.3573 20.0083 15.2284 18.9879 15.8507C20.1328 16.1991 21.1159 16.9084 21.9372 17.9787C22.7835 19.0489 23.2066 20.6293 23.2066 22.72C23.2066 25.5076 22.3479 27.76 20.6306 29.4773C18.9132 31.1698 16.5986 32.1529 13.6866 32.4267C13.5123 32.4516 13.3257 32.464 13.1266 32.464C12.9275 32.464 12.7283 32.464 12.5292 32.464C11.5586 32.464 10.5879 32.3396 9.61723 32.0907C8.67145 31.8418 7.68834 31.4436 6.6679 30.896C5.57278 30.2987 4.61456 29.7013 3.79323 29.104C2.97189 28.4818 2.28745 27.7351 1.73989 26.864C1.21723 25.9929 0.794117 24.8978 0.470561 23.5787L6.2199 21.488L9.95323 23.3547C10.0777 23.8276 10.2021 24.2133 10.3266 24.512C11.0235 24.3378 11.6332 23.9644 12.1559 23.392C12.6786 22.7947 12.9399 22.0107 12.9399 21.04C12.9399 20.4924 12.8652 20.0196 12.7159 19.6213C12.3426 19.6462 11.8572 19.6836 11.2599 19.7333C10.6626 19.7831 10.1275 19.8329 9.65456 19.8827L5.92123 18.016V11.9307ZM9.39323 24.9973C7.62612 24.9973 6.46878 23.9893 5.92123 21.9733L0.881228 23.8027C1.40389 25.9929 2.36212 27.6107 3.7559 28.656C5.14967 29.7013 6.84212 30.224 8.83323 30.224C9.00745 30.224 9.18167 30.224 9.3559 30.224C9.55501 30.224 9.74167 30.2116 9.9159 30.1867C12.7283 29.9627 14.9559 29.0293 16.5986 27.3867C18.2661 25.7191 19.0999 23.5413 19.0999 20.8533C19.0999 19.3351 18.8635 18.1031 18.3906 17.1573C17.9177 16.2116 17.3079 15.5022 16.5612 15.0293C15.8146 14.5316 15.0181 14.2204 14.1719 14.096C15.4163 13.5982 16.4119 12.7769 17.1586 11.632C17.9301 10.4871 18.3159 9.08089 18.3159 7.41333C18.3159 5.34755 17.7061 3.74222 16.4866 2.59733C15.2919 1.42755 13.6119 0.842664 11.4466 0.842664C11.2723 0.842664 11.0981 0.842664 10.9239 0.842664C10.7746 0.842664 10.6128 0.855108 10.4386 0.879997C8.89545 1.00444 7.52656 1.41511 6.3319 2.112C5.16212 2.80889 4.2039 3.70489 3.45723 4.8C2.73545 5.89511 2.27501 7.12711 2.07589 8.496L6.96656 9.09333C7.14078 8.22222 7.46434 7.52533 7.93723 7.00266C8.41012 6.45511 9.04478 6.144 9.84123 6.06933H10.0652C10.7621 6.06933 11.3346 6.30577 11.7826 6.77866C12.2306 7.25155 12.4546 7.92355 12.4546 8.79466C12.4546 9.71555 12.1186 10.4622 11.4466 11.0347C10.7995 11.6071 9.96567 11.9431 8.94523 12.0427L6.29456 12.2667V17.6053L9.2439 17.344C9.31856 17.344 9.39323 17.344 9.4679 17.344C9.56745 17.3191 9.65456 17.3067 9.72923 17.3067C10.7746 17.3067 11.6332 17.6427 12.3052 18.3147C12.9772 18.9618 13.3132 19.8702 13.3132 21.04C13.3132 22.2596 12.9399 23.2053 12.1932 23.8773C11.4715 24.5493 10.675 24.9227 9.8039 24.9973H9.39323ZM12.0439 8.08533C11.4963 8.40889 11.123 8.88178 10.9239 9.504C10.7248 10.1013 10.6252 10.6738 10.6252 11.2213C11.1479 10.8729 11.5212 10.4747 11.7452 10.0267C11.9941 9.57866 12.1186 9.14311 12.1186 8.72C12.1186 8.59555 12.1061 8.48355 12.0812 8.384C12.0812 8.28444 12.0688 8.18489 12.0439 8.08533Z" fill="#708089"/>
</svg>
