<svg width="25" height="24" viewBox="0 0 25 24" fill="none" xmlns="http://www.w3.org/2000/svg">
<circle cx="12.5" cy="12" r="10" stroke="#708089" stroke-width="2"/>
<path d="M7.97087 10.6052C7.81404 10.6052 7.67402 10.6388 7.5508 10.706C7.42758 10.7709 7.32229 10.8662 7.23491 10.9916C7.14754 11.1171 7.08033 11.2705 7.03328 11.452C6.98847 11.6312 6.96607 11.8351 6.96607 12.0636C6.96607 12.3728 7.00528 12.6327 7.08369 12.8433C7.1621 13.0539 7.28084 13.2129 7.4399 13.3205C7.60121 13.428 7.80284 13.4818 8.0448 13.4818C8.26435 13.4818 8.47494 13.4515 8.67658 13.391C8.88045 13.3305 9.08544 13.2577 9.29155 13.1726V14.295C9.07424 14.3913 8.85132 14.4608 8.62281 14.5034C8.39653 14.5459 8.1557 14.5672 7.9003 14.5672C7.36709 14.5672 6.93022 14.4619 6.58969 14.2513C6.2514 14.0385 6.0016 13.7439 5.84029 13.3675C5.68123 12.9911 5.6017 12.5543 5.6017 12.0569C5.6017 11.685 5.65323 11.3445 5.75628 11.0353C5.86158 10.7261 6.01504 10.4584 6.21667 10.2321C6.4183 10.0036 6.66698 9.82775 6.96271 9.70453C7.26068 9.57907 7.60121 9.51634 7.98431 9.51634C8.22179 9.51634 8.47158 9.54435 8.73371 9.60036C8.99807 9.65412 9.25571 9.7415 9.50663 9.86248L9.1 10.9076C8.92077 10.8225 8.73931 10.7508 8.5556 10.6925C8.37189 10.6343 8.17698 10.6052 7.97087 10.6052ZM13.603 13.0079C13.603 13.2745 13.5358 13.5277 13.4013 13.7674C13.2669 14.0049 13.0574 14.1976 12.7729 14.3454C12.4906 14.4933 12.1255 14.5672 11.6774 14.5672C11.4534 14.5672 11.2562 14.5571 11.0859 14.537C10.9179 14.5168 10.7611 14.4843 10.6155 14.4395C10.4698 14.3925 10.3186 14.332 10.1618 14.258V13.0751C10.4284 13.2096 10.6972 13.3126 10.9683 13.3843C11.2394 13.4538 11.4847 13.4885 11.7043 13.4885C11.8365 13.4885 11.944 13.4728 12.0269 13.4414C12.112 13.4101 12.1747 13.3675 12.2151 13.3137C12.2554 13.2577 12.2756 13.1939 12.2756 13.1222C12.2756 13.0371 12.2453 12.9654 12.1848 12.9071C12.1266 12.8466 12.0325 12.7839 11.9025 12.7189C11.7726 12.654 11.6012 12.5733 11.3884 12.477C11.2069 12.3918 11.0423 12.3045 10.8944 12.2148C10.7488 12.1252 10.6233 12.0233 10.518 11.909C10.415 11.7925 10.3354 11.657 10.2794 11.5024C10.2234 11.3478 10.1954 11.1652 10.1954 10.9546C10.1954 10.6388 10.2727 10.3744 10.4273 10.1616C10.5841 9.94649 10.8014 9.78519 11.0792 9.67765C11.3593 9.57011 11.6819 9.51634 12.047 9.51634C12.3674 9.51634 12.6553 9.55219 12.9107 9.62388C13.1683 9.69557 13.3991 9.77734 13.603 9.8692L13.1963 10.8942C12.9858 10.7978 12.7785 10.7217 12.5746 10.6656C12.3708 10.6074 12.1815 10.5783 12.0067 10.5783C11.8925 10.5783 11.7984 10.5928 11.7244 10.622C11.6527 10.6488 11.599 10.6858 11.5631 10.7329C11.5295 10.7799 11.5127 10.8337 11.5127 10.8942C11.5127 10.9703 11.5418 11.0387 11.6001 11.0991C11.6606 11.1596 11.7603 11.2257 11.8992 11.2974C12.0403 11.3669 12.2319 11.4576 12.4738 11.5696C12.7136 11.6772 12.9174 11.7937 13.0854 11.9191C13.2535 12.0423 13.3812 12.1913 13.4685 12.3661C13.5582 12.5386 13.603 12.7525 13.603 13.0079ZM18.7444 9.58691L17.1347 14.5H15.5721L13.9691 9.58691H15.4612L16.13 12.0771C16.1546 12.1712 16.1826 12.2921 16.214 12.44C16.2476 12.5856 16.2778 12.7312 16.3047 12.8769C16.3338 13.0225 16.3517 13.1412 16.3585 13.2331C16.3674 13.1412 16.3842 13.0236 16.4089 12.8802C16.4335 12.7368 16.4604 12.5935 16.4895 12.4501C16.5209 12.3045 16.55 12.1846 16.5769 12.0905L17.2591 9.58691H18.7444Z" fill="#708089"/>
</svg>
