<svg width="60" height="60" viewBox="0 0 60 60" fill="none" xmlns="http://www.w3.org/2000/svg">
<path d="M30 59C46.0163 59 59 46.0163 59 30C59 13.9837 46.0163 1 30 1C13.9837 1 1 13.9837 1 30C1 46.0163 13.9837 59 30 59Z" fill="#F0F0F0" stroke="white" stroke-width="2"/>
<path d="M7.7879 12.953C5.58848 15.8146 3.93003 19.1128 2.96436 22.6958H17.5307L7.7879 12.953Z" fill="#0052B4"/>
<path d="M57.0354 22.6958C56.0697 19.1129 54.4111 15.8147 52.2118 12.9531L42.4692 22.6958H57.0354Z" fill="#0052B4"/>
<path d="M2.96436 37.3045C3.93014 40.8874 5.58859 44.1856 7.7879 47.0471L17.5304 37.3045H2.96436Z" fill="#0052B4"/>
<path d="M47.0469 7.78823C44.1853 5.58881 40.8872 3.93036 37.3042 2.96458V17.5308L47.0469 7.78823Z" fill="#0052B4"/>
<path d="M12.9526 52.2118C15.8142 54.4112 19.1124 56.0696 22.6953 57.0354V42.4693L12.9526 52.2118Z" fill="#0052B4"/>
<path d="M22.6952 2.96458C19.1123 3.93036 15.8141 5.58881 12.9526 7.78812L22.6952 17.5307V2.96458Z" fill="#0052B4"/>
<path d="M37.3042 57.0354C40.8871 56.0696 44.1853 54.4112 47.0468 52.2119L37.3042 42.4693V57.0354Z" fill="#0052B4"/>
<path d="M42.4692 37.3045L52.2118 47.0472C54.4111 44.1857 56.0697 40.8874 57.0354 37.3045H42.4692Z" fill="#0052B4"/>
<g clip-path="url(#clip0_233_109)">
<path d="M30 58C45.464 58 58 45.464 58 30C58 14.536 45.464 2 30 2C14.536 2 2 14.536 2 30C2 45.464 14.536 58 30 58Z" fill="#F0F0F0"/>
<path d="M30.0001 2C17.9611 2 7.6979 9.5985 3.7417 20.2609H56.2587C52.3023 9.5985 42.0391 2 30.0001 2V2Z" fill="#A2001D"/>
<path d="M30.0001 58C42.0391 58 52.3023 50.4015 56.2585 39.7391H3.7417C7.6979 50.4015 17.9611 58 30.0001 58Z" fill="#0052B4"/>
</g>
<defs>
<clipPath id="clip0_233_109">
<rect width="56" height="56" fill="white" transform="translate(2 2)"/>
</clipPath>
</defs>
</svg>
