<svg width="32" height="32" viewBox="0 0 32 32" fill="none" xmlns="http://www.w3.org/2000/svg">
<path opacity="0.5" d="M2.66675 15.9998C2.66675 9.7145 2.66675 6.57184 4.61875 4.6185C6.57341 2.6665 9.71475 2.6665 16.0001 2.6665C22.2854 2.6665 25.4281 2.6665 27.3801 4.6185C29.3334 6.57317 29.3334 9.7145 29.3334 15.9998C29.3334 22.2852 29.3334 25.4278 27.3801 27.3798C25.4294 29.3332 22.2854 29.3332 16.0001 29.3332C9.71475 29.3332 6.57208 29.3332 4.61875 27.3798C2.66675 25.4292 2.66675 22.2852 2.66675 15.9998Z" stroke="#708089" stroke-width="2"/>
<path d="M8 10.6665V20.8252M14.42 10.6665V20.8252M8 15.9998H14.42M25.3333 21.3332L22.7653 19.3012M21.4813 20.8252C20.8853 20.8252 20.5867 20.8252 20.3387 20.7852C19.32 20.6252 18.524 19.9958 18.3213 19.1892C18.272 18.9932 18.272 18.7572 18.272 18.2852V13.2052C18.272 12.7345 18.272 12.4985 18.3213 12.3025C18.524 11.4958 19.32 10.8665 20.3387 10.7052C20.5867 10.6665 20.8853 10.6665 21.48 10.6665C22.0773 10.6665 22.3747 10.6665 22.6227 10.7065C23.6413 10.8665 24.4373 11.4958 24.6413 12.3025C24.6907 12.4985 24.6907 12.7345 24.6907 13.2065V18.2865C24.6907 18.7572 24.6907 18.9932 24.6413 19.1905C24.4387 19.9958 23.6413 20.6252 22.6227 20.7865C22.3747 20.8252 22.0773 20.8252 21.4813 20.8252Z" stroke="#708089" stroke-width="2" stroke-linecap="round"/>
</svg>
