<svg width="56" height="56" viewBox="0 0 56 56" fill="none" xmlns="http://www.w3.org/2000/svg">
<g clip-path="url(#clip0_222_268)">
<path d="M28 56C43.464 56 56 43.464 56 28C56 12.536 43.464 0 28 0C12.536 0 0 12.536 0 28C0 43.464 12.536 56 28 56Z" fill="#D80027"/>
<path d="M15.3234 17.0406L17.7406 24.4781H25.5609L19.2391 29.0828L21.6563 36.5203L15.3234 31.9266L8.99063 36.5203L11.4188 29.0828L5.08594 24.4781H12.9063L15.3234 17.0406Z" fill="#FFDA44"/>
<path d="M33.1954 43.3672L31.347 41.0922L28.6126 42.1531L30.1985 39.6922L28.3501 37.4062L31.1829 38.1609L32.7798 35.7L32.9329 38.6312L35.7767 39.3859L33.0313 40.4359L33.1954 43.3672Z" fill="#FFDA44"/>
<path d="M36.8704 36.6953L37.7454 33.8953L35.3501 32.2L38.2813 32.1562L39.1454 29.3562L40.097 32.1344L43.0282 32.1016L40.6767 33.8516L41.6173 36.6297L39.222 34.9344L36.8704 36.6953Z" fill="#FFDA44"/>
<path d="M41.8249 20.5516L40.5343 23.1875L42.6343 25.2328L39.7358 24.8172L38.4452 27.4422L37.9421 24.5547L35.0327 24.1391L37.6358 22.7719L37.1327 19.8734L39.2327 21.9187L41.8249 20.5516Z" fill="#FFDA44"/>
<path d="M33.2721 12.5672L33.0533 15.4875L35.7768 16.5922L32.9221 17.2922L32.7143 20.2234L31.1721 17.7297L28.3174 18.4297L30.2096 16.1875L28.6564 13.7047L31.3799 14.8094L33.2721 12.5672Z" fill="#FFDA44"/>
</g>
<defs>
<clipPath id="clip0_222_268">
<rect width="56" height="56" fill="white"/>
</clipPath>
</defs>
</svg>
