<svg width="25" height="24" viewBox="0 0 25 24" fill="none" xmlns="http://www.w3.org/2000/svg">
<path d="M20.4401 5.59V18.39C20.4401 18.8367 20.3101 19.2367 20.0501 19.59C19.7901 19.9367 19.4401 20.17 19.0001 20.29L13.2701 21.94C13.1901 21.96 13.1001 21.98 13.0001 22H12.7801C12.5601 22 12.3601 21.97 12.1801 21.91C12.0001 21.85 11.8167 21.77 11.6301 21.67L7.88006 19.55C7.74006 19.47 7.63006 19.3667 7.55006 19.24C7.47006 19.1133 7.43006 18.97 7.43006 18.81C7.43006 18.57 7.51673 18.3667 7.69006 18.2C7.85673 18.0333 8.06006 17.95 8.30006 17.95H13.1601V6.14L9.50006 7.44C9.21339 7.54667 8.98006 7.73333 8.80006 8C8.62006 8.25333 8.53006 8.53667 8.53006 8.85V15.58C8.53006 15.86 8.46006 16.1133 8.32006 16.34C8.18673 16.5667 7.99673 16.7467 7.75006 16.88L6.03006 17.82C5.87006 17.9067 5.71006 17.95 5.55006 17.95C5.27673 17.95 5.04339 17.8533 4.85006 17.66C4.65673 17.4667 4.56006 17.23 4.56006 16.95V7.47C4.56006 7.12333 4.65006 6.8 4.83006 6.5C5.01673 6.16667 5.26006 5.91333 5.56006 5.74L11.7201 2.24C11.8601 2.16 12.0101 2.1 12.1701 2.06C12.3301 2.02 12.4901 2 12.6501 2C12.7634 2 12.8667 2.01 12.9601 2.03C13.0534 2.04333 13.1567 2.06667 13.2701 2.1L19.0001 3.69C19.2201 3.75 19.4167 3.84 19.5901 3.96C19.7634 4.08 19.9134 4.22333 20.0401 4.39C20.1734 4.56333 20.2734 4.75 20.3401 4.95C20.4067 5.15667 20.4401 5.37 20.4401 5.59ZM19.1201 18.39V5.59C19.1201 5.43667 19.0801 5.30333 19.0001 5.19C18.9001 5.06333 18.7767 4.98667 18.6301 4.96L15.8101 4.18C15.6034 4.12 15.3834 4.06 15.1501 4C14.9301 3.92667 14.7134 3.86333 14.5001 3.81V20.21L18.6301 19C18.7767 18.9733 18.9001 18.9033 19.0001 18.79C19.0801 18.6767 19.1201 18.5433 19.1201 18.39Z" fill="#708089"/>
</svg>
