<svg width="24" height="25" viewBox="0 0 24 25" fill="none" xmlns="http://www.w3.org/2000/svg">
<path fill-rule="evenodd" clip-rule="evenodd" d="M11.8445 22.1619C8.15273 22.1619 5 21.5874 5 19.2866C5 16.9859 8.13273 14.8619 11.8445 14.8619C15.5364 14.8619 18.6891 16.9653 18.6891 19.266C18.6891 21.5659 15.5564 22.1619 11.8445 22.1619Z" stroke="#7053FF" stroke-width="1.5" stroke-linecap="round" stroke-linejoin="round"/>
<path fill-rule="evenodd" clip-rule="evenodd" d="M11.8373 11.6736C14.26 11.6736 16.2237 9.70999 16.2237 7.28727C16.2237 4.86454 14.26 2.89999 11.8373 2.89999C9.41458 2.89999 7.45004 4.86454 7.45004 7.28727C7.44186 9.70181 9.39186 11.6654 11.8064 11.6736C11.8173 11.6736 11.8273 11.6736 11.8373 11.6736Z" stroke="#7053FF" stroke-width="1.5" stroke-linecap="round" stroke-linejoin="round"/>
</svg>
