<svg width="32" height="32" viewBox="0 0 32 32" fill="none" xmlns="http://www.w3.org/2000/svg">
<path opacity="0.5" d="M4 13.8892C4 9.62517 4 7.49317 4.504 6.77584C5.00667 6.05984 7.01067 5.37317 11.02 4.00117L11.784 3.73984C13.8733 3.02384 14.9173 2.6665 16 2.6665C17.0813 2.6665 18.1267 3.02384 20.216 3.73984L20.98 4.00117C24.9893 5.37317 26.9933 6.05984 27.496 6.77584C28 7.49317 28 9.6265 28 13.8892V15.9878C28 23.5052 22.348 27.1545 18.8013 28.7025C17.84 29.1225 17.36 29.3332 16 29.3332C14.64 29.3332 14.16 29.1225 13.1987 28.7025C9.652 27.1532 4 23.5065 4 15.9878V13.8892Z" stroke="#708089" stroke-width="2"/>
<path d="M12.6667 16.533L14.5721 18.6663L19.3334 13.333" stroke="#708089" stroke-width="2" stroke-linecap="round" stroke-linejoin="round"/>
</svg>
