<svg width="32" height="32" viewBox="0 0 32 32" fill="none" xmlns="http://www.w3.org/2000/svg">
<path d="M15.9973 2.6665C12.1973 2.6665 9.73461 5.35984 6.82127 6.33984C5.63727 6.73984 5.04394 6.9385 4.80527 7.21984C4.56527 7.49984 4.49461 7.91184 4.35461 8.73317C2.85194 17.5278 6.13594 25.6585 13.9666 28.8238C14.8079 29.1638 15.2293 29.3332 16.0013 29.3332C16.7733 29.3332 17.1959 29.1638 18.0373 28.8238C25.8679 25.6585 29.1479 17.5278 27.6453 8.73317C27.5039 7.91184 27.4346 7.50117 27.1946 7.21984C26.9546 6.9385 26.3626 6.73984 25.1786 6.33984C22.2639 5.35984 19.7973 2.6665 15.9973 2.6665Z" stroke="#293237" stroke-width="2" stroke-linecap="round" stroke-linejoin="round"/>
<path d="M15.7773 16.2227C17.1839 17.6293 19.0373 19.0587 19.0373 19.0587L21.5773 16.5187C21.5773 16.5187 20.1479 14.6653 18.7413 13.2587C17.3346 11.852 15.4813 10.4227 15.4813 10.4227L12.9413 12.9627C12.9413 12.9627 14.3706 14.816 15.7773 16.2227ZM15.7773 16.2227L11.3333 20.6667M21.9999 16.0947L18.6133 19.4813M15.9066 10L12.5199 13.3867" stroke="#293237" stroke-width="2" stroke-linecap="round" stroke-linejoin="round"/>
</svg>
