<svg width="25" height="24" viewBox="0 0 25 24" fill="none" xmlns="http://www.w3.org/2000/svg">
<rect x="2.25" y="1.75" width="20.5" height="20.5" rx="5.25" stroke="#708089" stroke-width="1.5"/>
<path d="M7.46701 12.3929L8.76753 13.2975L8.80047 13.2756L8.89187 11.4471L10.2179 10.5669L10.0114 13.7414L12.3663 15.2157L11.0897 16.0631L9.74811 15.1501L9.71517 15.172L9.6237 17.0362L8.28945 17.9218L8.53712 14.72L6.23159 13.2129L7.46701 12.3929ZM12.9265 14.8438L10.8275 10.1622L11.9723 9.4023L13.6155 13.0576L15.3204 11.9259L15.7762 12.9522L12.9265 14.8438ZM16.355 12.5681L14.2559 7.88648L17.221 5.91835L17.6768 6.94467L15.8566 8.15288L16.2224 8.9542L17.8614 7.86627L18.3172 8.89259L16.6782 9.98052L17.4998 11.8082L16.355 12.5681Z" fill="#708089"/>
</svg>
