<svg width="20" height="21" viewBox="0 0 20 21" fill="none" xmlns="http://www.w3.org/2000/svg">
<g id="Work">
<path id="Stroke 1" d="M9.96118 15.0168V12.3888" stroke="#7053FF" stroke-width="1.5" stroke-linecap="round" stroke-linejoin="round"/>
<path id="Stroke 2" d="M19.0895 9.97769L19.0605 9.99869C16.6385 11.4907 13.4405 12.3917 9.95652 12.3917C6.47252 12.3917 3.28352 11.4907 0.86252 9.99869L0.83252 9.97769" stroke="#7053FF" stroke-width="1.5" stroke-linecap="round" stroke-linejoin="round"/>
<path id="Stroke 4" fill-rule="evenodd" clip-rule="evenodd" d="M0.750244 11.8507C0.750244 5.69867 3.05324 3.64767 9.96124 3.64767C16.8702 3.64767 19.1722 5.69867 19.1722 11.8507C19.1722 18.0027 16.8702 20.0537 9.96124 20.0537C3.05324 20.0537 0.750244 18.0027 0.750244 11.8507Z" stroke="#7053FF" stroke-width="1.5" stroke-linecap="round" stroke-linejoin="round"/>
<path id="Stroke 6" d="M13.2239 3.86929V3.23929C13.2239 1.97529 12.3009 0.950287 11.1639 0.950287H8.75885C7.62185 0.950287 6.69885 1.97529 6.69885 3.23929V3.86929" stroke="#7053FF" stroke-width="1.5" stroke-linecap="round" stroke-linejoin="round"/>
</g>
</svg>
