<svg width="76" height="23" viewBox="0 0 76 23" fill="none" xmlns="http://www.w3.org/2000/svg">
<rect y="11.5" width="14.1421" height="14.1421" rx="4" transform="rotate(-45 0 11.5)" fill="#293237"/>
<rect x="4" y="11.4998" width="8.48495" height="8.48495" rx="4.24248" transform="rotate(-45 4 11.4998)" fill="white"/>
<path d="M29.68 15.232C29.552 15.5627 29.3493 15.824 29.072 16.016C28.8053 16.208 28.4853 16.304 28.112 16.304C27.7493 16.304 27.2 16.08 26.464 15.632C25.7387 15.184 25.1573 14.896 24.72 14.768C24.432 15.152 24.1067 15.472 23.744 15.728C23.3813 15.984 23.1307 16.112 22.992 16.112C22.8853 16.112 22.672 15.8827 22.352 15.424C22.032 14.9547 21.872 14.6187 21.872 14.416C21.872 14.2987 22.0373 14.1227 22.368 13.888C22.7093 13.6533 23.0667 13.4933 23.44 13.408C23.7067 12.7573 23.984 11.7973 24.272 10.528C24.56 9.248 24.784 7.93067 24.944 6.576C24.944 6.40533 24.8853 6.20267 24.768 5.968C24.6613 5.72267 24.5493 5.52533 24.432 5.376L24.272 5.152L24.32 4.912C24.96 4.73067 26.0107 4.64 27.472 4.64C27.6107 4.87467 27.68 5.232 27.68 5.712C27.68 6.192 27.5413 6.90667 27.264 7.856C26.9867 8.80533 26.6027 9.94667 26.112 11.28C25.632 12.6027 25.3547 13.3867 25.28 13.632C25.3227 13.6427 25.456 13.68 25.68 13.744C25.904 13.808 26.048 13.8507 26.112 13.872C26.1867 13.8827 26.3253 13.9147 26.528 13.968C26.7307 14.0107 26.8907 14.0427 27.008 14.064C27.1253 14.0747 27.28 14.0907 27.472 14.112C27.8027 14.1653 28.112 14.192 28.4 14.192C28.6987 14.192 28.912 14.1173 29.04 13.968L29.488 13.136L30.016 13.264C30.016 13.9573 29.904 14.6133 29.68 15.232ZM32.7356 16.192C31.9996 16.192 31.4236 15.936 31.0076 15.424C30.5916 14.9013 30.3836 14.176 30.3836 13.248C30.3836 12.064 30.6983 11.0453 31.3276 10.192C31.9676 9.33867 32.8476 8.912 33.9676 8.912L34.5436 8.944C34.725 8.848 34.9276 8.8 35.1516 8.8C35.9943 8.8 36.4156 9.59467 36.4156 11.184C36.853 11.1627 37.2956 11.104 37.7436 11.008L37.9996 10.944L38.0956 11.568C37.7436 11.7173 37.269 11.8507 36.6716 11.968L36.3516 12.032C36.149 13.152 35.7383 14.128 35.1196 14.96C34.501 15.7813 33.7063 16.192 32.7356 16.192ZM33.5996 14.816C34.0476 14.816 34.4476 14.528 34.7996 13.952C35.1623 13.376 35.413 12.768 35.5516 12.128C34.4103 12.128 33.8396 11.7013 33.8396 10.848C33.8396 10.5067 33.909 10.1867 34.0476 9.888L34.1276 9.728C34.085 9.70667 34.0316 9.696 33.9676 9.696C33.9036 9.696 33.8556 9.70667 33.8236 9.728C33.557 9.89867 33.3063 10.2987 33.0716 10.928C32.837 11.5573 32.7196 12.2773 32.7196 13.088C32.7196 14.24 33.013 14.816 33.5996 14.816ZM40.8788 9.712C40.4521 9.712 40.1108 10.0693 39.8548 10.784C39.5988 11.488 39.4708 12.2453 39.4708 13.056C39.4708 14.336 39.8654 14.976 40.6548 14.976C40.9108 14.976 41.1828 14.9173 41.4708 14.8C41.7588 14.672 41.9881 14.5493 42.1588 14.432L42.3988 14.24L42.7668 14.736C42.6814 14.8533 42.5108 15.008 42.2548 15.2C41.9988 15.392 41.7588 15.552 41.5348 15.68C41.3108 15.808 41.0228 15.9253 40.6708 16.032C40.3188 16.1387 39.9721 16.192 39.6308 16.192C38.7988 16.192 38.1748 15.92 37.7588 15.376C37.3428 14.832 37.1348 14.1013 37.1348 13.184C37.1348 11.9147 37.4814 10.8853 38.1748 10.096C38.8788 9.30667 39.7801 8.912 40.8788 8.912C41.5934 8.912 42.1588 9.07733 42.5748 9.408C43.0014 9.728 43.2148 10.128 43.2148 10.608C43.2148 11.0773 43.0654 11.4827 42.7668 11.824C42.5001 11.824 42.1908 11.7653 41.8388 11.648C41.4868 11.5307 41.2201 11.3867 41.0388 11.216L41.2788 9.808C41.1828 9.744 41.0494 9.712 40.8788 9.712ZM48.3261 9.376C48.3475 9.35467 48.4061 9.216 48.5021 8.96C49.0035 8.96 49.6755 9.10933 50.5181 9.408C50.2515 10.2933 50.0381 11.2213 49.8781 12.192C49.7181 13.152 49.6381 13.84 49.6381 14.256C49.6381 14.6613 49.6808 14.864 49.7661 14.864C49.8301 14.864 50.0648 14.7627 50.4701 14.56L50.6621 14.464L50.9501 15.024C50.8541 15.1093 50.7261 15.216 50.5661 15.344C50.4168 15.472 50.1288 15.648 49.7021 15.872C49.2755 16.0853 48.8915 16.192 48.5501 16.192C47.8888 16.192 47.5048 15.8933 47.3981 15.296C46.7155 15.8933 46.0968 16.192 45.5421 16.192C44.9981 16.192 44.5341 15.9787 44.1501 15.552C43.7768 15.1253 43.5901 14.4533 43.5901 13.536C43.5901 12.1067 43.8835 10.9813 44.4701 10.16C45.0568 9.328 45.7661 8.912 46.5981 8.912C47.1955 8.912 47.7715 9.06667 48.3261 9.376ZM46.5021 14.832C46.7581 14.832 47.0461 14.7307 47.3661 14.528C47.4408 13.024 47.6915 11.536 48.1181 10.064C47.7981 9.92533 47.5261 9.856 47.3021 9.856C46.9181 9.856 46.5875 10.2347 46.3101 10.992C46.0435 11.7387 45.9101 12.5653 45.9101 13.472C45.9101 14.3787 46.1075 14.832 46.5021 14.832ZM52.4776 16.192C52.115 16.192 51.811 16.0693 51.5656 15.824C51.331 15.5787 51.2136 15.2373 51.2136 14.8C51.2136 14.352 51.475 12.9387 51.9976 10.56C52.531 8.17067 52.7976 6.448 52.7976 5.392L52.7016 4.688C53.5336 4.4 54.3123 4.256 55.0376 4.256C55.1443 4.40533 55.1976 4.66667 55.1976 5.04C55.1976 5.89333 54.9256 7.54667 54.3816 10C53.8483 12.4427 53.5816 13.8667 53.5816 14.272C53.5816 14.6667 53.6296 14.864 53.7256 14.864L54.8456 14.464L55.1336 15.024C54.771 15.312 54.3283 15.5787 53.8056 15.824C53.2936 16.0693 52.851 16.192 52.4776 16.192ZM58.8076 9.904C58.8076 10.352 58.6636 11.1253 58.3756 12.224C58.0876 13.312 57.9436 14.0267 57.9436 14.368C57.9436 14.6987 57.9916 14.864 58.0876 14.864C58.1516 14.864 58.397 14.7627 58.8236 14.56L59.0156 14.464L59.2876 15.024C59.1916 15.1093 59.0636 15.216 58.9036 15.344C58.7436 15.472 58.445 15.648 58.0076 15.872C57.5703 16.0853 57.165 16.192 56.7916 16.192C56.4183 16.192 56.125 16.08 55.9116 15.856C55.6983 15.6213 55.5916 15.312 55.5916 14.928C55.5916 14.5333 55.725 13.84 55.9916 12.848C56.2583 11.8453 56.3916 11.1947 56.3916 10.896C56.3916 10.448 56.253 10.0267 55.9756 9.632L55.8316 9.44L55.8476 9.232C56.413 9.072 57.3303 8.992 58.5996 8.992C58.7383 9.152 58.8076 9.456 58.8076 9.904ZM56.9836 7.248C56.7703 7.03467 56.6636 6.752 56.6636 6.4C56.6636 6.048 56.8076 5.73867 57.0956 5.472C57.3943 5.20533 57.7356 5.072 58.1196 5.072C58.5036 5.072 58.8023 5.17867 59.0156 5.392C59.229 5.60533 59.3356 5.888 59.3356 6.24C59.3356 6.58133 59.181 6.88533 58.8716 7.152C58.573 7.41867 58.237 7.552 57.8636 7.552C57.4903 7.552 57.197 7.45067 56.9836 7.248ZM64.527 9.104C64.5057 9.33867 64.4097 9.648 64.239 10.032C63.8337 9.98933 63.4337 9.968 63.039 9.968H62.975C62.751 12.6027 62.543 14.5493 62.351 15.808C62.159 17.0667 61.9083 17.9467 61.599 18.448C61.215 18.4373 60.815 18.384 60.399 18.288C59.9937 18.2027 59.7163 18.112 59.567 18.016C59.823 17.2267 60.079 16.0373 60.335 14.448C60.6017 12.8587 60.7723 11.392 60.847 10.048C60.5483 10.0693 60.2177 10.1067 59.855 10.16C59.823 10.0213 59.807 9.88267 59.807 9.744C59.807 9.59467 59.8283 9.38133 59.871 9.104H60.895C60.9163 8.176 60.9643 7.472 61.039 6.992C61.167 6.13867 61.4603 5.472 61.919 4.992C62.3883 4.50133 62.991 4.256 63.727 4.256C64.1963 4.256 64.5643 4.36267 64.831 4.576C65.1083 4.77867 65.247 5.104 65.247 5.552C65.247 6 65.0443 6.58133 64.639 7.296C64.2337 8 63.7003 8.60267 63.039 9.104H64.527ZM63.071 8.096C63.487 7.744 63.8123 7.35467 64.047 6.928C64.2817 6.50133 64.399 6.11733 64.399 5.776C64.399 5.424 64.287 5.248 64.063 5.248C63.5937 5.248 63.295 5.78667 63.167 6.864C63.1243 7.22667 63.0923 7.63733 63.071 8.096ZM65.7745 16.192C65.4118 16.192 65.1078 16.0693 64.8625 15.824C64.6278 15.5787 64.5105 15.2373 64.5105 14.8C64.5105 14.352 64.7718 12.9387 65.2945 10.56C65.8278 8.17067 66.0945 6.448 66.0945 5.392L65.9985 4.688C66.8305 4.4 67.6092 4.256 68.3345 4.256C68.4412 4.40533 68.4945 4.66667 68.4945 5.04C68.4945 5.89333 68.2225 7.54667 67.6785 10C67.1452 12.4427 66.8785 13.8667 66.8785 14.272C66.8785 14.6667 66.9265 14.864 67.0225 14.864L68.1425 14.464L68.4305 15.024C68.0678 15.312 67.6252 15.5787 67.1025 15.824C66.5905 16.0693 66.1478 16.192 65.7745 16.192ZM70.9685 17.728C70.6165 17.9413 70.4405 18.1493 70.4405 18.352C70.4405 18.5547 70.5525 18.656 70.7765 18.656C71.0112 18.656 71.2725 18.544 71.5605 18.32C71.8485 18.1067 72.0885 17.7547 72.2805 17.264C71.7685 17.36 71.3312 17.5147 70.9685 17.728ZM70.2005 16.064C69.3045 16.064 68.8565 15.5733 68.8565 14.592C68.8565 14.3573 68.9632 13.68 69.1765 12.56C69.3898 11.44 69.4965 10.5067 69.4965 9.76C69.4965 9.6 69.4752 9.45067 69.4325 9.312C70.0085 9.088 70.7978 8.976 71.8005 8.976C71.8538 9.12533 71.8805 9.38133 71.8805 9.744C71.8805 10.1067 71.7632 10.8587 71.5285 12C71.2938 13.1413 71.1765 13.8773 71.1765 14.208C71.1765 14.5387 71.3152 14.704 71.5925 14.704C71.9232 14.704 72.3232 14.5387 72.7925 14.208C72.8458 13.5787 73.0592 11.92 73.4325 9.232C73.8058 9.08267 74.4778 9.008 75.4485 9.008H75.7525C75.5498 9.808 75.3525 10.96 75.1605 12.464C74.9685 13.968 74.8138 15.0133 74.6965 15.6C74.4725 16.7733 74.0565 17.728 73.4485 18.464C72.8512 19.2107 72.0672 19.584 71.0965 19.584C70.7125 19.584 70.3605 19.4827 70.0405 19.28C69.7312 19.0773 69.5765 18.816 69.5765 18.496C69.5765 18.0693 69.8378 17.68 70.3605 17.328C70.8832 16.976 71.5872 16.704 72.4725 16.512C72.5685 16.0427 72.6432 15.5893 72.6965 15.152C71.8325 15.76 71.0005 16.064 70.2005 16.064Z" fill="#293237"/>
</svg>
