<svg width="61" height="60" viewBox="0 0 61 60" fill="none" xmlns="http://www.w3.org/2000/svg">
<path d="M30.5 59C46.5163 59 59.5 46.0163 59.5 30C59.5 13.9837 46.5163 1 30.5 1C14.4837 1 1.5 13.9837 1.5 30C1.5 46.0163 14.4837 59 30.5 59Z" fill="#F0F0F0" stroke="white" stroke-width="2"/>
<path d="M8.28815 12.953C6.08872 15.8146 4.43027 19.1128 3.4646 22.6958H18.0309L8.28815 12.953Z" fill="#0052B4"/>
<path d="M57.5354 22.6958C56.5698 19.1129 54.9112 15.8147 52.7119 12.9531L42.9693 22.6958H57.5354Z" fill="#0052B4"/>
<path d="M3.4646 37.3045C4.43038 40.8874 6.08883 44.1856 8.28815 47.0471L18.0306 37.3045H3.4646Z" fill="#0052B4"/>
<path d="M47.547 7.78824C44.6854 5.58882 41.3873 3.93037 37.8043 2.96458V17.5308L47.547 7.78824Z" fill="#0052B4"/>
<path d="M13.4531 52.2118C16.3146 54.4112 19.6128 56.0696 23.1958 57.0354V42.4693L13.4531 52.2118Z" fill="#0052B4"/>
<path d="M23.1956 2.96458C19.6127 3.93037 16.3145 5.58882 13.4531 7.78813L23.1956 17.5307V2.96458Z" fill="#0052B4"/>
<path d="M37.8044 57.0354C41.3873 56.0696 44.6856 54.4112 47.547 52.2119L37.8044 42.4693V57.0354Z" fill="#0052B4"/>
<path d="M42.9693 37.3045L52.7119 47.0472C54.9112 44.1857 56.5698 40.8874 57.5354 37.3045H42.9693Z" fill="#0052B4"/>
<path d="M58.263 26.3479H34.1524H34.1523V2.23702C32.9567 2.08138 31.7378 2 30.5 2C29.262 2 28.0433 2.08138 26.8479 2.23702V26.3476V26.3477H2.73702C2.58138 27.5433 2.5 28.7622 2.5 30C2.5 31.238 2.58138 32.4567 2.73702 33.6521H26.8476H26.8477V57.763C28.0433 57.9186 29.262 58 30.5 58C31.7378 58 32.9567 57.9187 34.1521 57.763V33.6524V33.6523H58.263C58.4186 32.4567 58.5 31.238 58.5 30C58.5 28.7622 58.4186 27.5433 58.263 26.3479Z" fill="#D80027"/>
<path d="M37.8044 37.3045L50.2989 49.7991C50.8736 49.2246 51.4218 48.624 51.9448 48.0015L41.2477 37.3044H37.8044V37.3045Z" fill="#D80027"/>
<path d="M23.1956 37.3045H23.1954L10.7009 49.799C11.2754 50.3736 11.8759 50.9218 12.4985 51.4448L23.1956 40.7475V37.3045Z" fill="#D80027"/>
<path d="M23.1956 22.6958V22.6956L10.7011 10.2009C10.1264 10.7754 9.57821 11.376 9.05518 11.9985L19.7524 22.6957H23.1956V22.6958Z" fill="#D80027"/>
<path d="M37.8044 22.6958L50.2991 10.201C49.7246 9.62639 49.124 9.0782 48.5015 8.55528L37.8044 19.2525V22.6958Z" fill="#D80027"/>
</svg>
