<svg width="12" height="13" viewBox="0 0 12 13" fill="none" xmlns="http://www.w3.org/2000/svg">
<circle cx="6" cy="6.5" r="6" fill="url(#paint0_linear_286_89)"/>
<path d="M5.58594 8.00859C5.58594 8.06615 5.55938 8.11263 5.50625 8.14805C5.45755 8.18346 5.39779 8.20339 5.32695 8.20781L4.18477 8.29414L3.39453 8.36055L2.98281 8.39375C2.9474 8.39375 2.91419 8.37161 2.8832 8.32734C2.85664 8.28307 2.84336 8.24102 2.84336 8.20117C2.84336 8.17018 2.85221 8.14805 2.86992 8.13477C2.89206 8.11706 2.91419 8.10599 2.93633 8.10156C2.96289 8.09271 2.9806 8.08607 2.98945 8.08164C2.99388 7.84258 2.99609 7.28477 2.99609 6.4082C2.99609 5.76185 2.96953 5.26159 2.91641 4.90742C2.86771 4.54883 2.84336 4.35625 2.84336 4.32969C2.84336 4.26771 2.86549 4.21901 2.90977 4.18359C2.95846 4.14818 3.00716 4.13047 3.05586 4.13047C3.08685 4.13047 3.1112 4.14375 3.12891 4.17031C3.14661 4.19245 3.1599 4.23008 3.16875 4.2832C3.21302 4.43372 3.24622 4.71042 3.26836 5.11328C3.29492 5.51615 3.3082 5.93672 3.3082 6.375C3.3082 6.74687 3.30599 7.09219 3.30156 7.41094C3.29714 7.72969 3.29492 7.9444 3.29492 8.05508C3.35247 8.05065 3.46315 8.04401 3.62695 8.03516C3.79076 8.02187 3.95898 8.00859 4.13164 7.99531C4.38841 7.96432 4.67839 7.91784 5.00156 7.85586C5.26276 7.80716 5.41992 7.78281 5.47305 7.78281C5.52175 7.78281 5.55273 7.80495 5.56602 7.84922C5.5793 7.89349 5.58594 7.94661 5.58594 8.00859ZM9.41224 6.16914C9.41224 6.30638 9.36354 6.38164 9.26614 6.39492C9.14218 6.4082 8.84778 6.46575 8.38294 6.56758C7.92252 6.66497 7.58385 6.74245 7.36692 6.8C7.36692 6.8974 7.36692 7.10326 7.36692 7.41758C7.37135 7.72747 7.37799 7.99089 7.38684 8.20781C7.39127 8.29193 7.40013 8.3849 7.41341 8.48672C7.43112 8.58854 7.44218 8.66159 7.44661 8.70586C7.47317 8.86523 7.48645 8.96042 7.48645 8.99141C7.48645 9.0401 7.4621 9.11094 7.41341 9.20391C7.36914 9.3013 7.33151 9.35 7.30052 9.35C7.26953 9.35 7.24075 9.33451 7.21419 9.30352C7.18763 9.27253 7.16992 9.2349 7.16106 9.19063C7.11679 8.99141 7.0858 8.66823 7.06809 8.22109C7.04596 7.67656 7.03489 7.25156 7.03489 6.94609C7.00833 6.95052 6.96406 6.95937 6.90208 6.97266C6.84453 6.98151 6.79362 6.98815 6.74934 6.99258C6.70507 6.99258 6.65859 6.98151 6.60989 6.95937C6.56119 6.93724 6.53684 6.91068 6.53684 6.87969C6.53684 6.84427 6.54791 6.81771 6.57005 6.8C6.59661 6.78229 6.62539 6.76901 6.65638 6.76016C6.68737 6.74687 6.7095 6.73802 6.72278 6.73359C6.88216 6.66719 6.98841 6.62513 7.04153 6.60742L6.98841 5.12656C6.6608 5.17969 6.41953 5.20625 6.26458 5.20625C6.09192 5.20625 5.97239 5.16419 5.90598 5.08008C5.84401 4.99596 5.81302 4.91849 5.81302 4.84766C5.81302 4.80781 5.84179 4.78789 5.89934 4.78789C5.9082 4.78789 5.95911 4.80338 6.05208 4.83437C6.14947 4.86536 6.23359 4.88086 6.30442 4.88086C6.44609 4.88086 6.67187 4.85872 6.98177 4.81445C6.98177 4.8056 6.98398 4.7724 6.98841 4.71484C6.99283 4.65286 7.01276 4.59753 7.04817 4.54883C7.07031 4.50898 7.09023 4.48242 7.10794 4.46914C7.12565 4.45586 7.14557 4.44922 7.1677 4.44922C7.25182 4.44922 7.29388 4.54219 7.29388 4.72812C7.35585 4.71484 7.49531 4.68828 7.71224 4.64844C7.93359 4.60859 8.18593 4.57096 8.46927 4.53555C8.7526 4.50013 8.9983 4.48242 9.20638 4.48242C9.37461 4.48242 9.45872 4.51562 9.45872 4.58203C9.45872 4.63516 9.4388 4.70378 9.39895 4.78789C9.36354 4.872 9.32148 4.91406 9.27278 4.91406C9.25507 4.91406 9.23737 4.90521 9.21966 4.8875C9.20195 4.86536 9.18867 4.85208 9.17981 4.84766C9.13997 4.82995 9.08242 4.82109 9.00716 4.82109C8.86992 4.82109 8.59544 4.84987 8.18372 4.90742C7.77643 4.96497 7.48203 5.01367 7.30052 5.05352L7.347 6.49453C7.58606 6.43255 7.95351 6.34844 8.44934 6.24219C8.94518 6.13594 9.23515 6.08281 9.31927 6.08281C9.35468 6.08281 9.37903 6.08945 9.39231 6.10273C9.40559 6.11159 9.41224 6.13372 9.41224 6.16914Z" fill="white"/>
<defs>
<linearGradient id="paint0_linear_286_89" x1="10" y1="11" x2="0.5" y2="2.5" gradientUnits="userSpaceOnUse">
<stop stop-color="#161718"/>
<stop offset="1" stop-color="#74797E"/>
</linearGradient>
</defs>
</svg>
