<svg width="119" height="24" viewBox="0 0 119 24" fill="none" xmlns="http://www.w3.org/2000/svg">
<path d="M33.3314 5.832V7.64H30.3554V17H28.1154V7.64H25.1394V5.832H33.3314ZM40.7258 17L38.2618 12.648H37.2058V17H34.9658V5.832H39.1578C40.0218 5.832 40.7578 5.98667 41.3658 6.296C41.9738 6.59467 42.4272 7.00533 42.7258 7.528C43.0351 8.04 43.1898 8.616 43.1898 9.256C43.1898 9.992 42.9765 10.6587 42.5498 11.256C42.1232 11.8427 41.4885 12.248 40.6458 12.472L43.3178 17H40.7258ZM37.2058 10.968H39.0778C39.6858 10.968 40.1391 10.824 40.4378 10.536C40.7365 10.2373 40.8858 9.82667 40.8858 9.304C40.8858 8.792 40.7365 8.39733 40.4378 8.12C40.1391 7.832 39.6858 7.688 39.0778 7.688H37.2058V10.968ZM52.0638 14.872H47.6158L46.8798 17H44.5278L48.5438 5.816H51.1518L55.1678 17H52.7998L52.0638 14.872ZM51.4558 13.08L49.8398 8.408L48.2238 13.08H51.4558ZM66.2209 17H63.9809L58.9089 9.336V17H56.6689V5.816H58.9089L63.9809 13.496V5.816H66.2209V17ZM72.2906 17.112C71.5119 17.112 70.8079 16.9787 70.1786 16.712C69.5599 16.4453 69.0692 16.0613 68.7066 15.56C68.3439 15.0587 68.1572 14.4667 68.1466 13.784H70.5466C70.5786 14.2427 70.7386 14.6053 71.0266 14.872C71.3252 15.1387 71.7306 15.272 72.2426 15.272C72.7652 15.272 73.1759 15.1493 73.4746 14.904C73.7732 14.648 73.9226 14.3173 73.9226 13.912C73.9226 13.5813 73.8212 13.3093 73.6186 13.096C73.4159 12.8827 73.1599 12.7173 72.8506 12.6C72.5519 12.472 72.1359 12.3333 71.6026 12.184C70.8772 11.9707 70.2852 11.7627 69.8266 11.56C69.3786 11.3467 68.9892 11.032 68.6586 10.616C68.3386 10.1893 68.1786 9.624 68.1786 8.92C68.1786 8.25867 68.3439 7.68267 68.6746 7.192C69.0052 6.70133 69.4692 6.328 70.0666 6.072C70.6639 5.80533 71.3466 5.672 72.1146 5.672C73.2666 5.672 74.1999 5.95467 74.9146 6.52C75.6399 7.07467 76.0399 7.85333 76.1146 8.856H73.6506C73.6292 8.472 73.4639 8.15733 73.1546 7.912C72.8559 7.656 72.4559 7.528 71.9546 7.528C71.5172 7.528 71.1652 7.64 70.8986 7.864C70.6426 8.088 70.5146 8.41333 70.5146 8.84C70.5146 9.13867 70.6106 9.38933 70.8026 9.592C71.0052 9.784 71.2506 9.944 71.5386 10.072C71.8372 10.1893 72.2532 10.328 72.7866 10.488C73.5119 10.7013 74.1039 10.9147 74.5626 11.128C75.0212 11.3413 75.4159 11.6613 75.7466 12.088C76.0772 12.5147 76.2426 13.0747 76.2426 13.768C76.2426 14.3653 76.0879 14.92 75.7786 15.432C75.4692 15.944 75.0159 16.3547 74.4186 16.664C73.8212 16.9627 73.1119 17.112 72.2906 17.112ZM80.4246 5.832V17H78.1846V5.832H80.4246ZM89.4857 14.872H85.0377L84.3017 17H81.9497L85.9657 5.816H88.5737L92.5897 17H90.2217L89.4857 14.872ZM88.8777 13.08L87.2617 8.408L85.6457 13.08H88.8777ZM101.867 9.192C101.611 8.72267 101.259 8.36533 100.811 8.12C100.363 7.87467 99.8402 7.752 99.2428 7.752C98.5815 7.752 97.9948 7.90133 97.4828 8.2C96.9708 8.49867 96.5708 8.92533 96.2828 9.48C95.9948 10.0347 95.8508 10.6747 95.8508 11.4C95.8508 12.1467 95.9948 12.7973 96.2828 13.352C96.5815 13.9067 96.9921 14.3333 97.5148 14.632C98.0375 14.9307 98.6455 15.08 99.3388 15.08C100.192 15.08 100.891 14.856 101.435 14.408C101.979 13.9493 102.336 13.3147 102.507 12.504H98.6668V10.792H104.715V12.744C104.565 13.5227 104.245 14.2427 103.755 14.904C103.264 15.5653 102.629 16.0987 101.851 16.504C101.083 16.8987 100.219 17.096 99.2588 17.096C98.1815 17.096 97.2055 16.856 96.3308 16.376C95.4668 15.8853 94.7841 15.208 94.2828 14.344C93.7921 13.48 93.5468 12.4987 93.5468 11.4C93.5468 10.3013 93.7921 9.32 94.2828 8.456C94.7841 7.58133 95.4668 6.904 96.3308 6.424C97.2055 5.93333 98.1762 5.688 99.2428 5.688C100.501 5.688 101.595 5.99733 102.523 6.616C103.451 7.224 104.091 8.08267 104.443 9.192H101.867ZM111.556 17.112C110.511 17.112 109.551 16.8667 108.676 16.376C107.801 15.8853 107.108 15.208 106.596 14.344C106.084 13.4693 105.828 12.4827 105.828 11.384C105.828 10.296 106.084 9.32 106.596 8.456C107.108 7.58133 107.801 6.89867 108.676 6.408C109.551 5.91733 110.511 5.672 111.556 5.672C112.612 5.672 113.572 5.91733 114.436 6.408C115.311 6.89867 115.999 7.58133 116.5 8.456C117.012 9.32 117.268 10.296 117.268 11.384C117.268 12.4827 117.012 13.4693 116.5 14.344C115.999 15.208 115.311 15.8853 114.436 16.376C113.561 16.8667 112.601 17.112 111.556 17.112ZM111.556 15.112C112.228 15.112 112.82 14.9627 113.332 14.664C113.844 14.3547 114.244 13.9173 114.532 13.352C114.82 12.7867 114.964 12.1307 114.964 11.384C114.964 10.6373 114.82 9.98667 114.532 9.432C114.244 8.86667 113.844 8.43467 113.332 8.136C112.82 7.83733 112.228 7.688 111.556 7.688C110.884 7.688 110.287 7.83733 109.764 8.136C109.252 8.43467 108.852 8.86667 108.564 9.432C108.276 9.98667 108.132 10.6373 108.132 11.384C108.132 12.1307 108.276 12.7867 108.564 13.352C108.852 13.9173 109.252 14.3547 109.764 14.664C110.287 14.9627 110.884 15.112 111.556 15.112Z" fill="#293237"/>
<rect y="12" width="16" height="16" rx="4" transform="rotate(-45 0 12)" fill="#7053FF"/>
<rect x="5" y="11.9998" width="8.92893" height="8.92893" rx="4.46447" transform="rotate(-45 5 11.9998)" fill="white"/>
</svg>
