<svg width="33" height="32" viewBox="0 0 33 32" fill="none" xmlns="http://www.w3.org/2000/svg">
<path d="M6.13099 26.536C6.5953 27.0004 7.14656 27.3688 7.75327 27.6202C8.35998 27.8716 9.01027 28.0009 9.66699 28.0009M6.13099 26.536C7.06867 27.4737 8.34091 28.0009 9.66699 28.0009M6.13099 26.536C5.19331 25.5983 4.66699 24.3261 4.66699 23V5.5C4.66699 4.672 5.33899 4 6.16699 4H13.167C13.995 4 14.667 4.672 14.667 5.5V10.9293M9.66699 28.0009C10.3237 28.0009 10.974 27.8716 11.5807 27.6202C12.1874 27.3688 12.7387 27.0004 13.203 26.536M9.66699 28.0009C10.9931 28.0009 12.2653 27.4737 13.203 26.536M9.66699 28.0009L27.167 28C27.995 28 28.667 27.328 28.667 26.5V19.5C28.667 18.672 27.995 18 27.167 18H21.7377M13.203 26.536L21.7377 18M13.203 26.536C14.1407 25.5983 14.667 24.3261 14.667 23V10.9293M21.7377 18L25.5763 14.16C26.163 13.576 26.163 12.6267 25.5763 12.04L20.627 7.08933C20.4878 6.95008 20.3226 6.83962 20.1407 6.76426C19.9588 6.68889 19.7639 6.6501 19.567 6.6501C19.3701 6.6501 19.1752 6.68889 18.9933 6.76426C18.8114 6.83962 18.6462 6.95008 18.507 7.08933L14.667 10.9293M9.66699 23H9.67766V23.0107H9.66699V23Z" stroke="#161718" stroke-width="2" stroke-linecap="round" stroke-linejoin="round"/>
</svg>
