<svg width="48" height="36" viewBox="0 0 48 36" fill="none" xmlns="http://www.w3.org/2000/svg">
<rect x="0.5" width="47" height="36" rx="12" fill="white"/>
<path d="M12.1464 12.3536C11.9512 12.1583 11.9512 11.8417 12.1464 11.6464L15.3284 8.46446C15.5237 8.2692 15.8403 8.2692 16.0355 8.46446C16.2308 8.65973 16.2308 8.97631 16.0355 9.17157L13.2071 12L16.0355 14.8284C16.2308 15.0237 16.2308 15.3403 16.0355 15.5355C15.8403 15.7308 15.5237 15.7308 15.3284 15.5355L12.1464 12.3536ZM35.5 12.5L12.5 12.5L12.5 11.5L35.5 11.5L35.5 12.5Z" fill="#686868"/>
<path d="M35.8536 24.3536C36.0488 24.1583 36.0488 23.8417 35.8536 23.6464L32.6716 20.4645C32.4763 20.2692 32.1597 20.2692 31.9645 20.4645C31.7692 20.6597 31.7692 20.9763 31.9645 21.1716L34.7929 24L31.9645 26.8284C31.7692 27.0237 31.7692 27.3403 31.9645 27.5355C32.1597 27.7308 32.4763 27.7308 32.6716 27.5355L35.8536 24.3536ZM12.5 24.5L35.5 24.5L35.5 23.5L12.5 23.5L12.5 24.5Z" fill="#686868"/>
</svg>
